<svg
  width="100"
  height="100"
  viewBox="0 0 24 24"
  fill="none"
  xmlns="http://www.w3.org/2000/svg"
>
  <circle cx="12" cy="12" r="10" fill="#FFC107" />
  <path
    fill-rule="evenodd"
    clip-rule="evenodd"
    d="M10.5361 7.97908L12.463 7.97908L12.463 10.8493C13.7035 10.8493 14.5351 11.7834 14.5351 13.0681L14.5351 13.3357C14.5351 14.5291 13.7394 15.2949 12.7049 15.2949C11.8393 15.2949 11.2572 14.8303 11.0878 14.1471L9.50846 14.1471C9.73747 15.2032 10.5128 15.9058 11.7197 15.9058C13.0072 15.9058 14.0365 15.1477 14.0365 13.7139L14.0365 13.4609C14.0365 12.3449 13.4939 11.8799 12.3807 11.8799L12.3807 11.8076C11.1745 11.8076 10.6361 11.2491 10.5361 10.1154L8.60922 10.1154L8.60922 7.97908L10.5361 7.97908ZM13.8651 12.6045C13.8651 13.2188 13.4917 13.6872 12.8944 13.6872C12.2821 13.6872 11.9258 13.2188 11.9258 12.5822L11.9258 12.4772C11.9258 12.359 11.9662 12.2959 12.0581 12.2959C12.148 12.2959 12.1874 12.359 12.1874 12.4772L12.1874 13.2974C12.1874 13.3956 12.2246 13.4497 12.3027 13.4497C12.3778 13.4497 12.4149 13.3956 12.4149 13.2974L12.4149 12.6045C12.4149 12.067 12.6944 11.8684 13.1341 11.8684C13.5105 11.8684 13.8651 12.207 13.8651 12.6045Z"
    fill="white"
  />
</svg>